<mxfile host="app.diagrams.net" modified="2024-01-02T06:22:48.769Z" agent="Mozilla/5.0 (Windows NT 10.0; Win64; x64) AppleWebKit/537.36 (KHTML, like Gecko) Chrome/120.0.0.0 Safari/537.36" etag="N19KmgmUwTlDWXLHhH-q" version="22.1.16" type="github">
  <diagram name="Page-1" id="KD83kWNCmhFfmmyivEF1">
    <mxGraphModel dx="613" dy="571" grid="1" gridSize="10" guides="1" tooltips="1" connect="1" arrows="1" fold="1" page="1" pageScale="1" pageWidth="850" pageHeight="1400" math="0" shadow="0">
      <root>
        <mxCell id="0" />
        <mxCell id="1" parent="0" />
        <mxCell id="K3LTqajHQ_CoU1o2a9mL-17" value="UAS2" style="swimlane;fontStyle=1;align=center;verticalAlign=top;childLayout=stackLayout;horizontal=1;startSize=26;horizontalStack=0;resizeParent=1;resizeParentMax=0;resizeLast=0;collapsible=1;marginBottom=0;whiteSpace=wrap;html=1;" parent="1" vertex="1">
          <mxGeometry x="20" y="340" width="160" height="86" as="geometry" />
        </mxCell>
        <mxCell id="K3LTqajHQ_CoU1o2a9mL-49" style="edgeStyle=orthogonalEdgeStyle;rounded=0;orthogonalLoop=1;jettySize=auto;html=1;exitX=1;exitY=0.5;exitDx=0;exitDy=0;" parent="K3LTqajHQ_CoU1o2a9mL-17" source="K3LTqajHQ_CoU1o2a9mL-18" edge="1">
          <mxGeometry relative="1" as="geometry">
            <mxPoint x="200" y="39" as="targetPoint" />
          </mxGeometry>
        </mxCell>
        <mxCell id="K3LTqajHQ_CoU1o2a9mL-18" value="+ field: type" style="text;strokeColor=none;fillColor=none;align=left;verticalAlign=top;spacingLeft=4;spacingRight=4;overflow=hidden;rotatable=0;points=[[0,0.5],[1,0.5]];portConstraint=eastwest;whiteSpace=wrap;html=1;" parent="K3LTqajHQ_CoU1o2a9mL-17" vertex="1">
          <mxGeometry y="26" width="160" height="26" as="geometry" />
        </mxCell>
        <mxCell id="K3LTqajHQ_CoU1o2a9mL-19" value="" style="line;strokeWidth=1;fillColor=none;align=left;verticalAlign=middle;spacingTop=-1;spacingLeft=3;spacingRight=3;rotatable=0;labelPosition=right;points=[];portConstraint=eastwest;strokeColor=inherit;" parent="K3LTqajHQ_CoU1o2a9mL-17" vertex="1">
          <mxGeometry y="52" width="160" height="8" as="geometry" />
        </mxCell>
        <mxCell id="K3LTqajHQ_CoU1o2a9mL-20" value="+ method(type): type" style="text;strokeColor=none;fillColor=none;align=left;verticalAlign=top;spacingLeft=4;spacingRight=4;overflow=hidden;rotatable=0;points=[[0,0.5],[1,0.5]];portConstraint=eastwest;whiteSpace=wrap;html=1;" parent="K3LTqajHQ_CoU1o2a9mL-17" vertex="1">
          <mxGeometry y="60" width="160" height="26" as="geometry" />
        </mxCell>
        <mxCell id="K3LTqajHQ_CoU1o2a9mL-21" value="Shape" style="swimlane;fontStyle=1;align=center;verticalAlign=top;childLayout=stackLayout;horizontal=1;startSize=26;horizontalStack=0;resizeParent=1;resizeParentMax=0;resizeLast=0;collapsible=1;marginBottom=0;whiteSpace=wrap;html=1;" parent="1" vertex="1">
          <mxGeometry x="220" y="340" width="160" height="110" as="geometry" />
        </mxCell>
        <mxCell id="K3LTqajHQ_CoU1o2a9mL-22" value="- Color" style="text;strokeColor=none;fillColor=none;align=left;verticalAlign=top;spacingLeft=4;spacingRight=4;overflow=hidden;rotatable=0;points=[[0,0.5],[1,0.5]];portConstraint=eastwest;whiteSpace=wrap;html=1;" parent="K3LTqajHQ_CoU1o2a9mL-21" vertex="1">
          <mxGeometry y="26" width="160" height="26" as="geometry" />
        </mxCell>
        <mxCell id="K3LTqajHQ_CoU1o2a9mL-23" value="" style="line;strokeWidth=1;fillColor=none;align=left;verticalAlign=middle;spacingTop=-1;spacingLeft=3;spacingRight=3;rotatable=0;labelPosition=right;points=[];portConstraint=eastwest;strokeColor=inherit;" parent="K3LTqajHQ_CoU1o2a9mL-21" vertex="1">
          <mxGeometry y="52" width="160" height="8" as="geometry" />
        </mxCell>
        <mxCell id="K3LTqajHQ_CoU1o2a9mL-24" value="&amp;nbsp;+ getColor&lt;table&gt;&lt;tbody&gt;&lt;tr&gt;&lt;td&gt;+ getArea&lt;/td&gt;&lt;/tr&gt;&lt;/tbody&gt;&lt;/table&gt;" style="text;strokeColor=none;fillColor=none;align=left;verticalAlign=top;spacingLeft=4;spacingRight=4;overflow=hidden;rotatable=0;points=[[0,0.5],[1,0.5]];portConstraint=eastwest;whiteSpace=wrap;html=1;" parent="K3LTqajHQ_CoU1o2a9mL-21" vertex="1">
          <mxGeometry y="60" width="160" height="50" as="geometry" />
        </mxCell>
        <mxCell id="K3LTqajHQ_CoU1o2a9mL-25" value="Scanner" style="swimlane;fontStyle=0;childLayout=stackLayout;horizontal=1;startSize=26;fillColor=none;horizontalStack=0;resizeParent=1;resizeParentMax=0;resizeLast=0;collapsible=1;marginBottom=0;whiteSpace=wrap;html=1;" parent="1" vertex="1">
          <mxGeometry x="20" y="530" width="140" height="78" as="geometry" />
        </mxCell>
        <mxCell id="K3LTqajHQ_CoU1o2a9mL-50" style="edgeStyle=orthogonalEdgeStyle;rounded=0;orthogonalLoop=1;jettySize=auto;html=1;exitX=1;exitY=0.5;exitDx=0;exitDy=0;" parent="K3LTqajHQ_CoU1o2a9mL-25" source="K3LTqajHQ_CoU1o2a9mL-27" edge="1">
          <mxGeometry relative="1" as="geometry">
            <mxPoint x="220" y="39" as="targetPoint" />
          </mxGeometry>
        </mxCell>
        <mxCell id="K3LTqajHQ_CoU1o2a9mL-27" value="+ nextLine" style="text;strokeColor=none;fillColor=none;align=left;verticalAlign=top;spacingLeft=4;spacingRight=4;overflow=hidden;rotatable=0;points=[[0,0.5],[1,0.5]];portConstraint=eastwest;whiteSpace=wrap;html=1;" parent="K3LTqajHQ_CoU1o2a9mL-25" vertex="1">
          <mxGeometry y="26" width="140" height="26" as="geometry" />
        </mxCell>
        <mxCell id="K3LTqajHQ_CoU1o2a9mL-28" value="+ nextDouble" style="text;strokeColor=none;fillColor=none;align=left;verticalAlign=top;spacingLeft=4;spacingRight=4;overflow=hidden;rotatable=0;points=[[0,0.5],[1,0.5]];portConstraint=eastwest;whiteSpace=wrap;html=1;" parent="K3LTqajHQ_CoU1o2a9mL-25" vertex="1">
          <mxGeometry y="52" width="140" height="26" as="geometry" />
        </mxCell>
        <mxCell id="K3LTqajHQ_CoU1o2a9mL-29" value="Circle" style="swimlane;fontStyle=0;childLayout=stackLayout;horizontal=1;startSize=26;fillColor=none;horizontalStack=0;resizeParent=1;resizeParentMax=0;resizeLast=0;collapsible=1;marginBottom=0;whiteSpace=wrap;html=1;" parent="1" vertex="1">
          <mxGeometry x="240" y="530" width="140" height="104" as="geometry" />
        </mxCell>
        <mxCell id="K3LTqajHQ_CoU1o2a9mL-30" value="+ radius" style="text;strokeColor=none;fillColor=none;align=left;verticalAlign=top;spacingLeft=4;spacingRight=4;overflow=hidden;rotatable=0;points=[[0,0.5],[1,0.5]];portConstraint=eastwest;whiteSpace=wrap;html=1;" parent="K3LTqajHQ_CoU1o2a9mL-29" vertex="1">
          <mxGeometry y="26" width="140" height="26" as="geometry" />
        </mxCell>
        <mxCell id="K3LTqajHQ_CoU1o2a9mL-31" value="+ getArea()" style="text;strokeColor=none;fillColor=none;align=left;verticalAlign=top;spacingLeft=4;spacingRight=4;overflow=hidden;rotatable=0;points=[[0,0.5],[1,0.5]];portConstraint=eastwest;whiteSpace=wrap;html=1;" parent="K3LTqajHQ_CoU1o2a9mL-29" vertex="1">
          <mxGeometry y="52" width="140" height="26" as="geometry" />
        </mxCell>
        <mxCell id="K3LTqajHQ_CoU1o2a9mL-32" value="+ Circle(color, radius)" style="text;strokeColor=none;fillColor=none;align=left;verticalAlign=top;spacingLeft=4;spacingRight=4;overflow=hidden;rotatable=0;points=[[0,0.5],[1,0.5]];portConstraint=eastwest;whiteSpace=wrap;html=1;" parent="K3LTqajHQ_CoU1o2a9mL-29" vertex="1">
          <mxGeometry y="78" width="140" height="26" as="geometry" />
        </mxCell>
        <mxCell id="K3LTqajHQ_CoU1o2a9mL-33" value="Rectangle" style="swimlane;fontStyle=0;childLayout=stackLayout;horizontal=1;startSize=26;fillColor=none;horizontalStack=0;resizeParent=1;resizeParentMax=0;resizeLast=0;collapsible=1;marginBottom=0;whiteSpace=wrap;html=1;" parent="1" vertex="1">
          <mxGeometry x="61" y="680" width="140" height="150" as="geometry" />
        </mxCell>
        <mxCell id="K3LTqajHQ_CoU1o2a9mL-34" value="+ length" style="text;strokeColor=none;fillColor=none;align=left;verticalAlign=top;spacingLeft=4;spacingRight=4;overflow=hidden;rotatable=0;points=[[0,0.5],[1,0.5]];portConstraint=eastwest;whiteSpace=wrap;html=1;" parent="K3LTqajHQ_CoU1o2a9mL-33" vertex="1">
          <mxGeometry y="26" width="140" height="26" as="geometry" />
        </mxCell>
        <mxCell id="K3LTqajHQ_CoU1o2a9mL-35" value="+ width" style="text;strokeColor=none;fillColor=none;align=left;verticalAlign=top;spacingLeft=4;spacingRight=4;overflow=hidden;rotatable=0;points=[[0,0.5],[1,0.5]];portConstraint=eastwest;whiteSpace=wrap;html=1;" parent="K3LTqajHQ_CoU1o2a9mL-33" vertex="1">
          <mxGeometry y="52" width="140" height="26" as="geometry" />
        </mxCell>
        <mxCell id="K3LTqajHQ_CoU1o2a9mL-36" value="+ getArea()&lt;br&gt;&lt;br&gt;+ Rectangle(color, length, width)" style="text;strokeColor=none;fillColor=none;align=left;verticalAlign=top;spacingLeft=4;spacingRight=4;overflow=hidden;rotatable=0;points=[[0,0.5],[1,0.5]];portConstraint=eastwest;whiteSpace=wrap;html=1;" parent="K3LTqajHQ_CoU1o2a9mL-33" vertex="1">
          <mxGeometry y="78" width="140" height="72" as="geometry" />
        </mxCell>
        <mxCell id="K3LTqajHQ_CoU1o2a9mL-45" style="edgeStyle=orthogonalEdgeStyle;rounded=0;orthogonalLoop=1;jettySize=auto;html=1;entryX=0.5;entryY=0;entryDx=0;entryDy=0;exitX=0.363;exitY=1;exitDx=0;exitDy=0;exitPerimeter=0;" parent="1" source="K3LTqajHQ_CoU1o2a9mL-24" target="K3LTqajHQ_CoU1o2a9mL-25" edge="1">
          <mxGeometry relative="1" as="geometry">
            <mxPoint x="282" y="474" as="targetPoint" />
            <mxPoint x="100" y="510" as="sourcePoint" />
          </mxGeometry>
        </mxCell>
        <mxCell id="K3LTqajHQ_CoU1o2a9mL-47" style="edgeStyle=orthogonalEdgeStyle;rounded=0;orthogonalLoop=1;jettySize=auto;html=1;entryX=0.5;entryY=0;entryDx=0;entryDy=0;" parent="1" target="K3LTqajHQ_CoU1o2a9mL-33" edge="1">
          <mxGeometry relative="1" as="geometry">
            <mxPoint x="89.5" y="613" as="sourcePoint" />
            <mxPoint x="179.5" y="610" as="targetPoint" />
          </mxGeometry>
        </mxCell>
      </root>
    </mxGraphModel>
  </diagram>
</mxfile>
